<svg width="202" height="212" fill="none" xmlns="http://www.w3.org/2000/svg"><path d="M162.01 63.19h-1.865V39.435c0-25.067-18.69-39.435-51.28-39.435S57.586 14.368 57.586 39.435v23.743h-1.865c-7.233 0-13.106 5.8-13.106 12.924v10.18c0 7.125 5.885 12.925 13.106 12.925h2.563c2.949 16.655 15.092 30.217 31.05 35.331v8.412H61.617c-9.207 0-8.593 6.414-10.65 15.006l1.552 1.24 2.094-4.104 5.716-2.551c-.168-.361.096-.578 1.288-.578h28.257l1.035 3.117c.433.999.939 1.962 1.528 2.864h-.204c1.709 3.081 5.27 7.69 11.577 8.869l10.025-.036c4.886-1.709 8.821-4.501 11.457-8.821a19.49 19.49 0 002.563-5.981l.542-9.025v-8.412c15.957-5.114 28.1-18.676 31.049-35.331h2.563c7.233 0 13.106-5.8 13.106-12.924V76.102c0-7.124-5.873-12.912-13.106-12.912zM57.586 90.182h-1.865c-2.25 0-4.08-1.745-4.08-3.9v-10.18c0-2.142 1.83-3.899 4.08-3.899h1.865v17.978zM78.274 16.21c7.16-4.706 17.739-7.185 30.591-7.185 12.853 0 23.432 2.48 30.592 7.185 7.787 5.102 11.602 12.635 11.65 22.996-8.557-9.314-22.962-14.356-42.254-14.356-19.291 0-33.696 5.042-42.253 14.356.072-10.36 3.875-17.882 11.674-22.996zm41.11 131.156c0 5.837-4.718 10.578-10.519 10.578-5.8 0-10.506-4.741-10.506-10.578v-10.914c1.661.18 3.346.276 5.067.276h10.891c1.709 0 3.394-.096 5.067-.276v10.914zm31.735-55.993c0 20.036-16.512 36.33-36.814 36.33h-10.891c-20.302 0-36.814-16.306-36.814-36.33V64.285c0-10.482 3.815-18.075 11.662-23.226 7.16-4.705 17.75-7.184 30.591-7.184 12.853 0 23.432 2.48 30.592 7.184 7.847 5.15 11.662 12.744 11.662 23.226v27.088h.012zm14.971-5.09c0 2.154-1.83 3.898-4.08 3.898h-1.865V72.203h1.865c2.25 0 4.08 1.745 4.08 3.899v10.18z" fill="#51215B"/><path d="M107.518 87.859h5.644a4.515 4.515 0 004.513-4.513 4.515 4.515 0 00-4.513-4.512h-3.767v-8.821a4.515 4.515 0 00-4.513-4.513 4.515 4.515 0 00-4.513 4.513v10.734c0 3.923 3.201 7.112 7.149 7.112zm-23.71-25.933a4.514 4.514 0 00-4.513 4.513v9.398a4.514 4.514 0 004.513 4.513 4.514 4.514 0 004.513-4.513V66.44a4.514 4.514 0 00-4.513-4.513zm50.113 18.436a4.515 4.515 0 004.513-4.513v-9.398a4.515 4.515 0 00-4.513-4.513 4.515 4.515 0 00-4.513 4.513v9.398a4.515 4.515 0 004.513 4.513z" fill="#51215B"/><path d="M202.001 124.646c0 10.698-8.665 19.363-19.364 19.363-10.699 0-19.364-8.665-19.364-19.363s8.665-19.362 19.364-19.362c10.699 0 19.364 8.676 19.364 19.362z" fill="#297DA2"/><path d="M81.39 170.628c0 5.559-4.502 10.06-10.061 10.06a10.056 10.056 0 01-10.061-10.06c0-5.56 4.5-10.061 10.06-10.061 5.56 0 10.061 4.501 10.061 10.061z" fill="#F8B23F"/><path d="M108.828 112.733c4.32 0 8.653-1.649 11.95-4.946a3.674 3.674 0 000-5.211 3.676 3.676 0 00-5.211 0 9.492 9.492 0 01-6.715 2.792h-.024a9.36 9.36 0 01-6.655-2.743c-1.444-1.433-3.779-1.433-5.211 0a3.689 3.689 0 000 5.222c3.261 3.249 7.558 4.886 11.866 4.886z" fill="#51215B"/><path d="M66.767 133.792c-.758-.662-2.142-1.239-3.718-.914-2.852.601-3.683 1.732-4.947 3.441-1.143 1.553-2.563 3.478-5.644 5.091-2.19 1.143-4.02 1.973-6.101 1.42-1.962-.53-3.67-2.191-5.957-4.898-1.806-2.142-2.046-4.585-.686-7.076 1.047-1.914 2.912-3.719 5.066-5.692 3.49-3.213 7.233-.987 10.242.818 2.756 1.649 5.62 3.358 9.062 2.648 1.564-.325 2.166-1.613 2.31-1.998.253-.674.18-1.155.109-1.276-2.046-.998-8.75-4.572-13.082-8.074-4.934-3.996-6.92-3.947-10.06-1.829-.891.601-1.698.866-2.336 1.083-.854.276-1.468.481-2.479 1.468a1.962 1.962 0 01-2.78-.048 1.961 1.961 0 01.049-2.78c1.66-1.613 2.948-2.034 3.983-2.383.313-.108.566-.192.818-.301l7.257-24.14c.927-3.08-.457-4.982-1.095-5.656-.963-1.022-2.239-1.504-3.322-1.251-1.372.325-2.058 1.745-2.407 2.888l-7.918 26.523c-.482 1.733-1.384 2.924-2.19 3.983-1.084 1.42-2.01 2.647-2.275 5.379a1.97 1.97 0 01-1.95 1.781c-.06 0-.12 0-.192-.012a1.968 1.968 0 01-1.77-2.142c.362-3.839 1.854-5.8 3.045-7.377.698-.926 1.252-1.66 1.54-2.671 0-.012.013-.024.013-.036l.987-3.31 1.432-10.758c.53-4.007-2.215-7.076-4.26-7.353-1.589-.216-2.179 1.637-2.395 3.237l-4.658 34.814a1.967 1.967 0 01-1.937 1.709c-.084 0-.169 0-.265-.012a1.963 1.963 0 01-1.685-2.202l2.42-18.051c.108-.71-.241-1.287-.542-1.648-.65-.747-1.685-1.216-2.72-1.216-.566 0-1.745 0-1.95 3.514l-1.336 22.78v14.585c0 2.732.795 5.524 1.637 8.472.698 2.467 1.42 4.994 1.685 7.581h7.269a1.962 1.962 0 010 3.923H14.08v8.219h35.55v-8.219h-8.942a1.962 1.962 0 110-3.923h7.281c.626-5.379 3.815-7.605 6.908-9.771 2.684-1.878 5.464-3.803 7.113-8.219 1.684-4.489 3.478-6.727 4.657-8.22a18 18 0 00.746-.974c0-.121-.12-.482-.626-.927z" fill="#fff"/><path d="M70.485 132.119c-.445-.661-1.07-1.287-1.84-1.817 1.034-1.143 1.636-2.551 1.792-3.826.265-2.082-.59-3.863-2.214-4.658-1.552-.758-8.22-4.259-12.347-7.605-3.731-3.02-6.908-4.717-10.519-3.947l6.246-20.794c1.047-3.49.301-7.04-1.998-9.483-1.925-2.046-4.633-2.96-7.076-2.37-1.444.336-4.043 1.528-5.259 5.583l-2.238 7.497c-1.3-3.418-4.128-5.885-7.004-6.27-2.684-.36-6.078 1.156-6.8 6.607l-1.492 11.131a7.73 7.73 0 00-4.02-1.155c-2.034 0-5.5.939-5.86 7.208L8.52 131.048v14.766c0 3.273.902 6.462 1.78 9.555.638 2.262 1.264 4.428 1.517 6.534a1.959 1.959 0 00-1.66 1.938v12.142a1.96 1.96 0 001.96 1.961h39.486a1.962 1.962 0 001.962-1.961v-12.142c0-.975-.71-1.781-1.637-1.938.518-3.309 2.455-4.669 5.2-6.57 2.875-2.01 6.462-4.513 8.544-10.073 1.468-3.911 2.96-5.776 4.055-7.136.337-.421.662-.818.939-1.227.95-1.408.89-3.189-.18-4.778zm-3.826 3.562c-1.192 1.481-2.973 3.719-4.658 8.22-1.649 4.416-4.429 6.353-7.112 8.219-3.093 2.154-6.282 4.38-6.908 9.771H40.7a1.962 1.962 0 000 3.923h8.942v8.219H14.079v-8.219h8.942a1.961 1.961 0 100-3.923h-7.257c-.264-2.587-.986-5.126-1.684-7.581-.843-2.961-1.637-5.74-1.637-8.472v-14.585l1.336-22.78c.204-3.514 1.384-3.514 1.95-3.514 1.034 0 2.07.469 2.719 1.215.3.349.65.927.542 1.649l-2.42 18.051a1.963 1.963 0 001.686 2.202c.084.012.18.012.264.012.963 0 1.805-.722 1.938-1.709l4.657-34.814c.217-1.588.795-3.441 2.395-3.237 2.046.277 4.802 3.346 4.26 7.353l-1.432 10.758-.987 3.31c0 .012-.012.024-.012.036-.276 1.01-.83 1.745-1.54 2.671-1.191 1.577-2.684 3.538-3.045 7.377a1.96 1.96 0 001.77 2.142c.06 0 .12.012.192.012a1.96 1.96 0 001.95-1.781c.264-2.732 1.19-3.959 2.274-5.379.794-1.059 1.709-2.251 2.19-3.983l7.919-26.523c.337-1.143 1.035-2.563 2.407-2.888 1.083-.253 2.347.216 3.321 1.251.638.674 2.022 2.588 1.096 5.656l-7.257 24.14a7.676 7.676 0 01-.819.301c-1.035.337-2.322.77-3.983 2.383a1.972 1.972 0 00-.048 2.78 1.973 1.973 0 002.78.048c1.023-.987 1.636-1.192 2.479-1.468.65-.217 1.444-.482 2.335-1.083 3.14-2.118 5.126-2.155 10.06 1.829 4.333 3.502 11.036 7.076 13.082 8.074.06.121.144.602-.108 1.276-.145.385-.746 1.673-2.31 1.998-3.455.71-6.307-.999-9.063-2.648-3.009-1.793-6.74-4.031-10.241-.818-2.154 1.985-4.02 3.778-5.067 5.692-1.36 2.491-1.12 4.934.686 7.076 2.287 2.707 3.983 4.368 5.957 4.898 2.082.553 3.911-.277 6.102-1.42 3.08-1.613 4.5-3.538 5.644-5.091 1.264-1.709 2.094-2.84 4.946-3.441 1.577-.337 2.96.252 3.719.914.505.445.626.806.638.903-.193.3-.458.625-.746.998zm-9.616-4.151c-.879.794-1.517 1.66-2.118 2.479-1.047 1.42-2.022 2.755-4.309 3.947-1.697.89-2.623 1.275-3.273 1.107-1.023-.277-2.575-1.998-3.971-3.634-1.276-1.504-.855-2.852 4.031-7.353 1.168-1.083 2.239-.686 5.56 1.3 1.252.698 2.6 1.504 4.08 2.154z" fill="#51215B" stroke="#51215B" stroke-width="2" stroke-miterlimit="10"/><path d="M29.895 163.841a1.962 1.962 0 103.923-.001 1.962 1.962 0 00-3.923.001z" fill="#51215B"/><path d="M62.255 180.881c0 17.184-13.936 31.119-31.122 31.119C13.948 212 0 198.065 0 180.881c0-17.185 13.936-31.12 31.121-31.12 17.186 0 31.134 13.923 31.134 31.12z" fill="#fff"/><path d="M50.762 179.653c0 10.433-8.46 18.905-18.907 18.905-10.433 0-18.906-8.46-18.906-18.905 0-10.433 8.46-18.905 18.907-18.905 10.445 0 18.906 8.46 18.906 18.905z" fill="#F8B23F"/><path d="M125.291 145.802h18.545c4.706 0 9.267 1.649 12.889 4.669l12.276 10.241c2.069 1.733.854 5.102-1.854 5.102h-37.548" stroke="#51215B" stroke-width="8" stroke-miterlimit="10" stroke-linecap="round"/><path d="M19.773 177.968l6.186 8.773 16.524-11.733" stroke="#FCFCFC" stroke-width="4" stroke-miterlimit="10" stroke-linecap="round" stroke-linejoin="round"/></svg>