<svg width="162" height="98" fill="none" xmlns="http://www.w3.org/2000/svg"><path fill-rule="evenodd" clip-rule="evenodd" d="M134.849 48.772c0 26.937-21.836 48.772-48.772 48.772S37.303 75.709 37.303 48.772C37.304 21.836 59.141 0 86.076 0c26.937 0 48.773 21.835 48.773 48.77z" fill="#297DA2" fill-opacity=".1"/><path fill-rule="evenodd" clip-rule="evenodd" d="M29 20h30.886L62 21.174V58.65L60.93 61l-30.843-.534L29 20z" fill="#fff"/><path d="M56.303 78.197a1.355 1.355 0 00-.953-.397h-2.7v-2.7c0-.742.608-1.35 1.35-1.35h21.6a4.051 4.051 0 000-8.1H56.7c-.742 0-1.35-.608-1.35-1.35v-2.7h4.05a4.051 4.051 0 004.05-4.05v-35.1a4.051 4.051 0 00-4.05-4.05H43.757l-5.004-5.003A1.355 1.355 0 0037.8 13H21.6a2.697 2.697 0 00-2.7 2.7v2.7H5.4a4.051 4.051 0 00-4.05 4.05v35.1A4.051 4.051 0 005.4 61.6h18.9V67h-5.4c-.742 0-1.35.608-1.35 1.35v5.4c0 .743.607 1.35 1.35 1.35h27c.742 0 1.35-.607 1.35-1.35v-5.4c0-.742-.608-1.35-1.35-1.35h-5.4v-5.4h12.15v2.7a4.051 4.051 0 004.05 4.05h18.9c.743 0 1.35.608 1.35 1.35 0 .742-.608 1.35-1.35 1.35H54a4.051 4.051 0 00-4.05 4.05v2.7H9.45c-.354 0-.7.143-.953.397l-8.1 8.1A1.355 1.355 0 000 87.25v4.05C0 92.793 1.207 94 2.7 94h59.4c1.493 0 2.7-1.207 2.7-2.7v-4.05c0-.354-.143-.7-.397-.953l-8.1-8.1zM39.15 17.607l3.493 3.493H39.15v-3.493zM21.6 15.7h14.85v5.4c0 1.493 1.207 2.7 2.7 2.7h4.05v21.6H21.6V15.7zM5.4 21.1h13.5v24.3c0 1.493 1.207 2.7 2.7 2.7h21.6c1.493 0 2.7-1.207 2.7-2.7V21.1h13.5c.742 0 1.35.607 1.35 1.35V50.8H4.05V22.45c0-.742.607-1.35 1.35-1.35zM4.05 57.55V53.5h56.7v4.05c0 .742-.608 1.35-1.35 1.35h-54c-.743 0-1.35-.608-1.35-1.35zm40.5 14.85h-24.3v-2.7h24.3v2.7zM37.8 67H27v-5.4h10.8V67zM10.007 80.5h44.786l5.4 5.4H4.607l5.4-5.4zM2.7 91.3v-2.7h59.4v2.7H2.7z" fill="#002060"/><path d="M10.8 81.85h2.7v2.7h-2.7v-2.7zm5.4 0h32.4v2.7H16.2v-2.7zm35.1 0H54v2.7h-2.7v-2.7zm25.65-1.35h-5.4a4.051 4.051 0 00-4.05 4.05v2.7c0 .743.608 1.35 1.35 1.35h10.8c.742 0 1.35-.607 1.35-1.35v-2.7a4.051 4.051 0 00-4.05-4.05zm1.35 5.4h-8.1v-1.35c0-.742.608-1.35 1.35-1.35h5.4c.742 0 1.35.608 1.35 1.35v1.35zM52.65 54.85h2.7v2.7h-2.7v-2.7zm-27-28.35h13.5v2.7h-13.5v-2.7zm0 5.4h13.5v2.7h-13.5v-2.7zm0 5.4h13.5V40h-13.5v-2.7z" fill="#002060"/><path fill-rule="evenodd" clip-rule="evenodd" d="M104.721 15h20.059L126 50h-20.932L103 48.707V16.755L104.721 15z" fill="#fff"/><path fill-rule="evenodd" clip-rule="evenodd" d="M105.544 15h29.653L137 50h-30.944L103 48.707V16.755L105.544 15zm0 43h29.653L137 93h-30.944L103 91.707V59.755L105.544 58z" fill="#fff"/><path fill-rule="evenodd" clip-rule="evenodd" d="M107.891 33h26.218c.491 0 .891-.224.891-.5s-.399-.5-.891-.5h-26.218c-.492 0-.891.224-.891.5s.399.5.891.5zm0-4h26.218c.491 0 .891-.448.891-1s-.399-1-.891-1h-26.218c-.492 0-.891.448-.891 1s.399 1 .891 1zm5.528 11.65h11.152c.458 0 .83-.337.83-.752 0-.416-.372-.752-.83-.752h-11.152c-.459 0-.831.337-.831.752s.372.751.831.751zm26.436-17.698a.03.03 0 01.031-.029h16.367c.017 0 .031.014.031.029v19.141c0 .015-.014.027-.031.027h-2.027v-.495c0-1.22-.437-2.35-1.176-3.268a4.99 4.99 0 00.97-2.94v-6.01a5.23 5.23 0 00-.588-2.465 5.474 5.474 0 00-1.632-1.875c-2.162-1.583-5.3-1.583-7.461 0a5.493 5.493 0 00-1.633 1.875 5.24 5.24 0 00-.588 2.465v6.01c0 1.084.358 2.093.971 2.94-.739.918-1.177 2.048-1.177 3.268v.495h-2.026c-.018 0-.031-.011-.031-.027V22.952zm5.715 12.635v.95a6.39 6.39 0 00-1.209.646 3.48 3.48 0 01-.484-1.767v-1.06a5.42 5.42 0 001.693 1.231zm3.253-7.18a.902.902 0 00-.754-.386.902.902 0 00-.754.387c-1.01 1.524-2.493 2.104-3.438 2.326v-1.327c0-.655.14-1.254.416-1.78.272-.518.66-.963 1.152-1.324a4.453 4.453 0 012.624-.836c.932 0 1.864.28 2.624.836.492.361.88.806 1.151 1.322.278.527.418 1.127.418 1.782v1.325c-.946-.223-2.432-.805-3.439-2.324zm1.745 7.18a5.42 5.42 0 001.694-1.233v1.062c0 .638-.176 1.239-.485 1.767a6.329 6.329 0 00-1.209-.647v-.95zm-1.758.505v.938c0 .37-.333.67-.741.67s-.741-.3-.741-.67v-.938c.243.03.49.047.741.047s.499-.018.741-.047zm-.741-1.543c-1.65 0-3.05-.984-3.524-2.337 1.024-.271 2.387-.841 3.524-2.038 1.138 1.198 2.501 1.767 3.525 2.038-.474 1.353-1.874 2.337-3.525 2.337zm4.399 7.572h-8.798v-.496c0-1.483.904-2.78 2.24-3.464.433.674 1.238 1.129 2.159 1.129.921 0 1.725-.454 2.159-1.127 1.335.683 2.24 1.979 2.24 3.462v.495zm-12.582 1.59h16.367c.986 0 1.789-.726 1.789-1.618V22.952c0-.892-.803-1.619-1.789-1.619h-16.367c-.987 0-1.789.727-1.789 1.619v19.141c0 .892.802 1.618 1.789 1.618z" fill="#002060"/><mask id="a" maskUnits="userSpaceOnUse" x="102" y="13" width="60" height="38"><path fill-rule="evenodd" clip-rule="evenodd" d="M102 13.604h60v37.024h-60V13.603z" fill="#fff"/></mask><g mask="url(#a)"><path fill-rule="evenodd" clip-rule="evenodd" d="M159.42 13.604h-43.368c-.485 0-.879.355-.879.795 0 .438.394.794.879.794h43.368c.452 0 .821.334.821.744v32.357c0 .41-.368.744-.821.744h-54.84c-.453 0-.822-.334-.822-.744V15.937c0-.41.369-.744.822-.744h7.414c.486 0 .879-.356.879-.794 0-.44-.393-.795-.879-.795h-7.414c-1.422 0-2.58 1.046-2.58 2.333v32.357c0 1.287 1.158 2.334 2.58 2.334h54.84c1.422 0 2.58-1.047 2.58-2.334V15.937c0-1.287-1.158-2.333-2.58-2.333z" fill="#002060"/></g><path fill-rule="evenodd" clip-rule="evenodd" d="M107.891 22h26.218c.491 0 .891-.448.891-1s-.399-1-.891-1h-26.218c-.492 0-.891.448-.891 1s.399 1 .891 1zm25.29 20.83c-.841.068-1.453.396-2.289.489-.681.076-1.361.076-2.043.098a.767.767 0 00-.407-.524c-1.341-.642-3.185-.349-4.638-.166-.018.002-.029.011-.046.014-.295-.142-.728-.304-.802-.31-.485-.03-.886.188-1.247.44a1.828 1.828 0 00-1.204.082 1.156 1.156 0 00-.649-.075c-.865.156-1.676.208-2.494.212.33-.415.498-.879.389-1.55-.084-.527-1.052-.732-1.429-.325-.73.788-1.318 2.117-2.295.957-.275-.326-.734-.473-1.17-.264-.87.419-2.742 1.59-2.959.124-.109-.746-1.461-1.084-1.679-.195.001.07-.014.132-.026.196h-.004l.001.017c-.062.293-.26.523-.609.68a.747.747 0 00.455 1.419c.23-.073.424-.155.601-.245.173.252.423.461.823.583 1.09.334 2.575-.434 3.639-.991.663.63 1.231.856 1.778.78.149.13.349.223.589.234 1.457.067 2.578.1 3.973-.082.234.422.994.55 1.369.188l.6-.248c.335.194.756.086 1.037-.115.454-.324 1.396.222 2.008.116a.758.758 0 00.474-.304c.52-.055 1.183-.103 1.752-.073-.229.533.214 1.124.985.988 1.351-.237 2.586-.022 3.9-.186.568-.071 1.046-.448 1.617-.493 1.087-.088 1.097-1.559 0-1.47zM157 76c0-.553-.399-1-.891-1h-26.218c-.492 0-.891.447-.891 1 0 .553.399 1 .891 1h26.218c.492 0 .891-.447.891-1zm0-6c0-.553-.399-1-.891-1h-26.218c-.492 0-.891.447-.891 1 0 .553.399 1 .891 1h26.218c.492 0 .891-.447.891-1zm-14.908-6c.502 0 .908-.224.908-.5s-.406-.5-.908-.5h-12.184c-.502 0-.908.224-.908.5s.406.5.908.5h12.184z" fill="#002060"/><path fill-rule="evenodd" clip-rule="evenodd" d="M104.58 57h43.367c.486 0 .88.356.88.795 0 .439-.394.794-.88.794H104.58c-.453 0-.822.334-.822.744v32.334c0 .41.369.744.822.744h54.84c.453 0 .822-.333.822-.744V59.333c0-.41-.369-.743-.822-.743h-7.415c-.485 0-.879-.356-.879-.795 0-.439.393-.794.879-.794h7.415c1.422 0 2.58 1.046 2.58 2.332v32.334c0 1.287-1.158 2.333-2.58 2.333h-54.84c-1.422 0-2.58-1.047-2.58-2.333V59.333c0-1.286 1.158-2.333 2.58-2.333z" fill="#002060"/><path fill-rule="evenodd" clip-rule="evenodd" d="M111.867 63.591a1.78 1.78 0 00-1.778 1.778v8.761c0 .98.798 1.777 1.778 1.777h6.587c.98 0 1.777-.797 1.777-1.777v-8.76a1.78 1.78 0 00-1.777-1.778h-6.587zm6.587 14.03h-6.587a3.494 3.494 0 01-3.491-3.49v-8.762a3.495 3.495 0 013.491-3.491h6.587a3.495 3.495 0 013.49 3.49v8.762a3.494 3.494 0 01-3.49 3.49z" fill="#002060"/></svg>