<svg width="221" height="196" fill="none" xmlns="http://www.w3.org/2000/svg"><path d="M123.071 99.16a20.594 20.594 0 00-14.603 6.047c-1.754 1.768-1.754 4.617 0 6.372a4.512 4.512 0 006.37 0 11.58 11.58 0 018.197-3.414h.024c3.077 0 5.961 1.19 8.137 3.354a4.512 4.512 0 006.37 0 4.516 4.516 0 000-6.372c-3.979-3.991-9.231-5.987-14.495-5.987z" fill="#51215B"/><path d="M181.483 68.515h-11.43v25.476h11.43V68.515z" fill="#fff"/><path d="M121.198 87.775h5.636a4.51 4.51 0 000-9.017h-3.761v-8.812a4.51 4.51 0 00-4.507-4.508 4.51 4.51 0 00-4.507 4.508V80.67c0 3.92 3.197 7.105 7.139 7.105zM97.52 61.867a4.51 4.51 0 00-4.506 4.508v9.39a4.51 4.51 0 004.507 4.508 4.51 4.51 0 004.507-4.508v-9.39a4.51 4.51 0 00-4.507-4.508zm50.046 18.418a4.51 4.51 0 004.507-4.508v-9.39a4.51 4.51 0 00-4.507-4.508 4.51 4.51 0 00-4.507 4.508v9.39a4.51 4.51 0 004.507 4.508z" fill="#51215B"/><path d="M221 127.845c0 12.912-10.456 23.372-23.364 23.372-12.908 0-23.365-10.46-23.365-23.372 0-12.912 10.457-23.371 23.365-23.371 12.908 0 23.364 10.459 23.364 23.371z" fill="#F8B23F"/><path d="M40.623 169.371a3.639 3.639 0 01-2.752-1.263 3.614 3.614 0 01.409-5.085 81.985 81.985 0 0022.763-31.583c-.012-.288-.048-.685-.072-.986-.204-2.5-.505-6.287 3.077-6.961a3.59 3.59 0 014.206 2.874 3.647 3.647 0 01-.192 2.007c.012.457.072 1.094.096 1.503.132 1.647.217 2.645-.192 3.679a89.25 89.25 0 01-25.011 34.961 3.562 3.562 0 01-2.332.854zm24.783-38.797c0 .013 0 .013 0 0 0 .013 0 .013 0 0z" fill="#4F1F58"/><path d="M138.947 157.793a19.425 19.425 0 002.56-5.975l.541-9.017v-8.403c15.937-5.11 28.064-18.659 31.009-35.298h2.56c7.223 0 13.088-5.795 13.088-12.912v-10.17c0-7.118-5.877-12.913-13.088-12.913h-1.863V39.397C173.754 14.355 155.089 0 122.542 0 89.995 0 71.33 14.355 71.33 39.397v23.72h-1.863c-7.223 0-13.088 5.795-13.088 12.912V86.2c0 7.117 5.877 12.912 13.088 12.912h2.56c2.945 16.639 15.072 30.188 31.009 35.298v8.403h-27.68c-9.194 0-8.58 6.408-10.636 14.992l11.261 9.017 51.525-.205c4.867-1.707 8.809-4.508 11.441-8.824zm34.807-85.659h1.863c2.247 0 4.074 1.743 4.074 3.895V86.2c0 2.152-1.827 3.895-4.074 3.895h-1.863V72.134zM71.33 90.095h-1.863c-2.247 0-4.074-1.743-4.074-3.895V76.03c0-2.14 1.827-3.896 4.074-3.896h1.863v17.961zm20.66-73.9c7.151-4.702 17.728-7.178 30.552-7.178 12.836 0 23.4 2.476 30.551 7.177 7.777 5.098 11.586 12.623 11.635 22.975-8.546-9.305-22.932-14.343-42.198-14.343-19.266 0-33.653 5.037-42.198 14.343.072-10.351 3.882-17.865 11.658-22.975zm-11.646 75.09V64.224c0-10.471 3.81-18.057 11.646-23.203 7.151-4.7 17.728-7.177 30.552-7.177 12.836 0 23.4 2.476 30.551 7.177 7.837 5.146 11.647 12.732 11.647 23.203v27.063c0 20.017-16.49 36.295-36.766 36.295h-10.877c-20.263 0-36.753-16.278-36.753-36.296zm-3.846 66.508c1.707-3.522-5.312-5.975-1.142-5.975h28.22a19.474 19.474 0 002.56 5.975H76.498zm35.552-10.568v-10.904c1.658.18 3.341.277 5.059.277h10.877c1.707 0 3.39-.097 5.06-.277v10.904c0 5.831-4.711 10.568-10.504 10.568-5.793 0-10.492-4.737-10.492-10.568z" fill="#51215B"/><path d="M64.722 127.04c-.505-2.717 1.575-5.158 3.498-7.129 3.677-3.787 7.355-7.562 11.033-11.349 1.142-1.179 2.44-2.429 4.086-2.537 2.164-.132 3.978 1.935 4.267 4.087.288 2.152-.565 4.28-1.563 6.204-.997 1.924-2.187 3.799-2.632 5.915-.324 1.527-.132 3.366 1.13 4.268.841.601 1.96.649 2.993.673 8.737.168 17.487.156 26.225-.024 2.584-.048 5.3-.084 7.571 1.142 2.272 1.239 3.798 4.22 2.548 6.48-1.25 2.248-4.314 2.549-6.886 2.573-5.156.048-10.312.108-15.456.156 2.848-.024 4.495 0 4.495 0 1.322.89 2.031 2.597 1.718 4.16-.372 1.876-1.562 3.967-3.365 4.629-1.238.457-4.976.348-6.887.264 3.834.12 5.529-.324 7.272.914 1.754 1.238 2.319 2.813 1.838 4.905-.504 2.2-2.475 3.811-4.627 4.52-2.151.71-4.447.65-6.694.589 3.966-.06 4.218-.396 4.939.626 1.022 1.454 1.443 3.498.277 4.833-.793.901-2.02 1.298-3.185 1.611a59.28 59.28 0 01-14.302 2.043c-3.618.073-7.344-.204-10.625-1.731-6.358-2.933-9.927-10.087-10.54-17.059-.625-6.973 1.202-13.91 3.017-20.679" fill="#FCFCFC"/><path d="M81.932 170.224c-3.281 0-7.283-.324-11.057-2.068-6.983-3.222-11.815-10.892-12.62-20.017-.649-7.297 1.142-14.487 2.849-20.907-.577-4.58 2.848-8.103 4.53-9.834l11.034-11.349c1.238-1.274 3.33-3.414 6.442-3.619 3.882-.264 7.5 2.982 8.064 7.202.445 3.258-.805 6.167-1.947 8.343l-.612 1.154c-.734 1.359-1.43 2.645-1.695 3.847-.048.217-.06.409-.06.553.264.024.565.024.733.024a647.9 647.9 0 0026.081-.024c2.764-.06 6.225-.132 9.362 1.587 2.175 1.179 3.87 3.294 4.555 5.639.577 2.008.373 4.051-.589 5.771-2.415 4.352-7.92 4.4-9.999 4.424l-5.613.06c0 .457-.048.914-.144 1.358-.301 1.491-.962 3.186-2.055 4.605 1.105 1.767 1.43 3.883.901 6.203-.625 2.718-2.632 5.098-5.408 6.481.36 2.067-.145 4.111-1.503 5.662-1.586 1.803-3.774 2.392-4.951 2.717a62.73 62.73 0 01-15.168 2.164c-.349.012-.733.024-1.13.024zM68.28 125.97a3.63 3.63 0 01.072 2.092c-1.707 6.396-3.473 13.008-2.909 19.428.577 6.456 3.895 11.986 8.462 14.102 2.26 1.046 5.047 1.479 9.038 1.395a56.36 56.36 0 0013.28-1.876c-.348-.012-.697-.012-1.033-.024a3.602 3.602 0 01-3.51-3.631 3.602 3.602 0 013.558-3.582c.901-.012 1.61-.036 2.163-.06.625-.024 1.238-.048 1.827-.012a9.468 9.468 0 001.623-.337c1.141-.373 2.067-1.154 2.235-1.887.168-.758.096-.806-.409-1.155-.144-.096-.324-.156-.637-.192-1.153.048-2.68.036-4.723-.06a3.612 3.612 0 01-3.437-3.739c.072-1.984 1.754-3.547 3.713-3.462.926.024 1.72.024 2.416.012a31.027 31.027 0 012.116.024c.588-.036.949-.073 1.105-.109.145-.072.709-.781.938-1.779-.661 0-1.491 0-2.476.012h-.132c-1.983.084-3.618-1.575-3.642-3.571a3.601 3.601 0 013.57-3.642h.156l15.3-.157c3.293-.036 3.725-.649 3.773-.721.049-.228-.336-1.13-1.117-1.551-1.467-.793-3.654-.745-5.769-.709-8.75.18-17.62.192-26.37.024-1.213-.024-3.232-.06-5.023-1.347-2.272-1.635-3.257-4.676-2.56-7.958.469-2.224 1.502-4.112 2.404-5.783.192-.349.384-.697.564-1.058.638-1.226 1.359-2.801 1.19-4.052-.06-.42-.348-.817-.528-.949-.289.108-.854.589-1.659 1.418l-11.033 11.349c-.625.626-2.32 2.369-2.536 3.547z" fill="#4F1F58"/><path d="M137.686 147.802h18.52c4.7 0 9.255 1.648 12.872 4.665l12.259 10.231c2.068 1.731.854 5.098-1.85 5.098h-37.499" stroke="#51215B" stroke-width="8" stroke-miterlimit="10" stroke-linecap="round"/><path d="M55.911 168.036C55.911 183.485 43.4 196 27.955 196 12.513 196 0 183.485 0 168.036c0-15.449 12.511-27.964 27.956-27.964 15.444 0 27.955 12.527 27.955 27.964z" fill="#fff"/><path d="M49.132 168.036c0 11.061-8.966 20.029-20.023 20.029s-20.023-8.968-20.023-20.029c0-11.06 8.966-20.029 20.023-20.029s20.023 8.969 20.023 20.029z" fill="#E73C4A"/><path d="M37.246 178.315a2.218 2.218 0 01-1.598-.673l-16.201-16.579a2.243 2.243 0 01.036-3.174 2.242 2.242 0 013.173.036l16.201 16.579a2.243 2.243 0 01-1.61 3.811z" fill="#fff"/><path d="M20.866 178.135a2.243 2.243 0 01-1.563-3.847l16.574-16.206a2.24 2.24 0 013.173.036 2.243 2.243 0 01-.036 3.174L22.44 177.498c-.445.42-1.01.637-1.574.637z" fill="#fff"/><path d="M49.722 132.991c0 5.554-4.495 10.051-10.047 10.051-5.553 0-10.048-4.497-10.048-10.051s4.495-10.051 10.048-10.051c5.552 0 10.047 4.509 10.047 10.051z" fill="#E73C4A"/></svg>