<?xml version="1.0" standalone="no"?>
<!DOCTYPE svg PUBLIC "-//W3C//DTD SVG 1.1//EN" "http://www.w3.org/Graphics/SVG/1.1/DTD/svg11.dtd" >
<svg xmlns="http://www.w3.org/2000/svg">
<metadata>Generated by IcoMoon</metadata>
<defs>
<font id="icomoon" horiz-adv-x="1024">
<font-face units-per-em="1024" ascent="960" descent="-64" />
<missing-glyph horiz-adv-x="1024" />
<glyph unicode="&#x20;" horiz-adv-x="512" d="" />
<glyph unicode="&#xe900;" glyph-name="profile" d="M512.104 393.152c100.641 0.052 182.598 81.905 182.755 182.494 0.105 101.060-81.957 183.227-182.964 183.175-100.641 0-182.598-81.905-182.755-182.494-0.157-101.060 81.905-183.227 182.964-183.175zM518.018-9.57c12.56 0.942 31.14 1.727 49.562 3.978 97.972 11.985 183.069 52.022 255.606 118.749 10.572 9.787 10.519 9.944 4.606 22.714-63.901 139.37-211.121 221.118-363.102 198.771-125.762-18.527-215.36-87.505-270.102-202.068-3.506-7.222-2.512-11.514 3.402-17.061 88.604-82.062 193.431-123.041 320.030-125.082zM873.009 168.737c129.635 159.728 140.206 428.576-41.502 605.784-186.575 181.918-482.479 173.335-657.174-18.579-169.305-186.001-141.881-444.015-23.185-586.944 51.55 98.967 129.164 167.997 235.875 204.056-126.651 78.451-149.784 251.368-52.754 360.802 89.232 100.641 245.191 107.079 342.325 13.398 48.148-46.474 73.217-103.938 72.798-170.771-0.576-87.191-39.879-154.233-112.573-203.376 107.13-36.269 184.639-105.352 236.189-204.37zM511.529-64c-282.82 0.472-512.572 230.801-511.529 512.89 0.946 282.769 230.436 511.633 512.471 511.11 282.768-0.472 512.624-230.905 511.529-512.942-0.998-282.769-230.489-511.633-512.471-511.058z" />
<glyph unicode="&#xe901;" glyph-name="info" d="M150.016 98.816c-96.436 93.233-156.308 223.762-156.308 368.276 0 282.77 229.23 512 512 512 144.514 0 275.043-59.872 368.137-156.164l0.138-0.144c88.925-91.979 143.724-217.436 143.724-355.692 0-282.77-229.23-512-512-512-138.256 0-263.713 54.799-355.836 143.863l0.144-0.138zM460.8 409.6v-204.8h102.4v307.2h-102.4v-102.4zM460.8 716.8v-102.4h102.4v102.4h-102.4z" />
<glyph unicode="&#xe902;" glyph-name="alert" d="M585.143 165.143v108.571c0 10.286-8 18.857-18.286 18.857h-109.714c-10.286 0-18.286-8.571-18.286-18.857v-108.571c0-10.286 8-18.857 18.286-18.857h109.714c10.286 0 18.286 8.571 18.286 18.857zM584 378.857l10.286 262.286c0 3.429-1.714 8-5.714 10.857-3.429 2.857-8.571 6.286-13.714 6.286h-125.714c-5.143 0-10.286-3.429-13.714-6.286-4-2.857-5.714-8.571-5.714-12l9.714-261.143c0-7.429 8.571-13.143 19.429-13.143h105.714c10.286 0 18.857 5.714 19.429 13.143zM576 912.571l438.857-804.571c12.571-22.286 12-49.714-1.143-72s-37.143-36-62.857-36h-877.714c-25.714 0-49.714 13.714-62.857 36s-13.714 49.714-1.143 72l438.857 804.571c12.571 23.429 37.143 38.286 64 38.286s51.429-14.857 64-38.286z" />
<glyph unicode="&#xe903;" glyph-name="checkmark" d="M512 864c-229.76 0-416-186.24-416-416s186.24-416 416-416 416 186.24 416 416-186.24 416-416 416zM744.256 566.176l-303.552-303.52c-7.616-7.584-19.936-7.584-27.552 0l-6.112 6.112-0.032-0.032-167.008 168.192c-7.616 7.616-7.616 19.968 0 27.584l41.408 41.376c7.616 7.616 19.968 7.616 27.584 0l118.048-118.912 248.192 248.192c7.616 7.616 19.968 7.616 27.584 0l41.408-41.408c7.648-7.584 7.648-19.936 0.032-27.584z" />
<glyph unicode="&#xe904;" glyph-name="info-with-circle" d="M512 952.32c-271.514 0-491.571-220.058-491.571-491.52 0-271.514 220.058-491.571 491.571-491.571 271.411 0 491.52 220.058 491.52 491.571 0 271.462-220.109 491.52-491.52 491.52zM557.875 774.861c47.923 0 62.003-27.802 62.003-59.597 0-39.68-31.744-76.39-85.965-76.39-45.363 0-66.97 22.784-65.638 60.518 0 31.795 26.573 75.469 89.6 75.469zM435.098 166.4c-32.768 0-56.678 19.917-33.792 107.213l37.53 154.88c6.502 24.781 7.578 34.714 0 34.714-9.779 0-52.326-17.101-77.414-33.997l-16.333 26.778c79.616 66.509 171.162 105.523 210.33 105.523 32.768 0 38.195-38.707 21.862-98.304l-43.008-162.816c-7.629-28.774-4.352-38.707 3.277-38.707 9.83 0 41.984 11.878 73.626 36.813l18.534-24.883c-77.466-77.414-161.894-107.213-194.611-107.213z" />
<glyph unicode="&#xe905;" d="M1015.761 443.874c0-280.483-227.384-507.867-507.885-507.867-280.483 0-507.885 227.384-507.885 507.867s227.402 507.885 507.885 507.885c280.502 0 507.885-227.402 507.885-507.885z" />
<glyph unicode="&#xe906;" d="M827.768 723.912c-0.131 0.556-0.282 1.111-0.413 1.648-1.314 0.074-2.647 0.185-3.979 0.185-129.441 0.018-258.9 0.056-388.36-0.093-3.322 0-7.039-1.278-9.911-3.018-21.868-13.5-43.566-27.222-65.302-40.907-1.276-0.796-2.384-1.852-4.618-3.63 3.022-0.167 4.599-0.333 6.194-0.333 129.215-0.019 258.412-0.019 387.646 0.037 2.309 0 5.030 0.019 6.87 1.148 24.026 14.87 47.94 29.926 71.872 44.962v0zM751.222 551.377c-0.113 0.519-0.244 1.037-0.375 1.574-1.577 0.056-3.153 0.186-4.73 0.186-129.178 0-258.375 0.018-387.553-0.149-3.548 0-7.508-1.389-10.568-3.241-30.239-18.463-60.347-37.148-90.473-55.814-2.008-1.241-3.867-2.704-5.819-4.074 0.244-0.407 0.488-0.833 0.751-1.222h7.058c116.057 0 232.096 0 348.154 0.056 14.078 0 28.963-2.593 42.008 1.111 13.027 3.722 24.233 13.759 36.171 21.092 21.811 13.463 43.585 26.981 65.377 40.481v0zM581.575 175.66h-472.17c-0.131 2.648-0.357 4.704-0.357 6.778 0 37 0.113 73.981-0.113 110.98-0.019 4.944 1.765 7.481 5.875 10 30.859 18.833 61.492 38.037 92.35 56.833 4.636 2.833 6.419 5.796 6.382 11.241-0.263 36.277 0 72.573-0.282 108.851-0.056 6.093 1.633 9.667 7.076 12.963 30.746 18.574 61.135 37.703 91.806 56.425 4.167 2.537 5.669 5.315 5.65 10.167-0.206 37.203-0.019 74.444-0.188 111.684-0.019 4.537 1.333 7.185 5.312 9.611 31.065 18.981 61.905 38.277 93.026 57.166 3.604 2.204 8.372 3.611 12.595 3.63 151.665 0.167 303.33 0.148 454.995 0.13 2.496 0 4.993-0.259 9.742-0.537-5.575-3.463-9.31-5.796-13.045-8.092-28.325-17.537-56.612-35.111-85.011-52.481-3.848-2.352-5.5-4.852-5.481-9.537 0.225-36.74-0.019-73.499 0.263-110.221 0.038-5.852-1.52-9.204-6.72-12.37-30.708-18.611-61.098-37.74-91.75-56.481-4.336-2.648-6.138-5.444-6.1-10.63 0.244-36.277-0.019-72.573 0.282-108.869 0.056-6.333-1.764-10.074-7.414-13.518-30.333-18.333-60.291-37.222-90.567-55.666-4.618-2.833-6.344-5.759-6.326-11.222 0.3-36.277 0.169-72.573 0.169-108.869v-7.963z" />
<glyph unicode="&#xe907;" d="M588.396 175.66c0 9.402-0.462 17.431 0.289 25.368 0.231 2.522 3.237 5.507 5.76 7.028 54.85 32.544 109.815 64.903 164.741 97.317 35.102 20.676 70.127 41.463 105.345 61.973 4.816 2.8 6.512 5.804 6.512 11.219-0.135 105.921 0.039 211.842-0.193 317.763-0.019 7.751 1.85 12.888 9.228 16.281 4.123 1.891 7.745 4.729 12.542 7.733 0.25-2.967 0.578-4.933 0.578-6.88 0.019-117.251-0.019-234.502 0.077-351.735 0.019-4.766-1.349-7.584-5.761-10.18-97.234-57.114-194.353-114.414-291.51-171.639-2.023-1.205-4.123-2.318-7.61-4.246z" />
<glyph unicode="&#xe908;" d="M261.447 371.745h392.17v87.149h-392.17z" />
<glyph unicode="&#xe909;" d="M370.383 567.83h392.17v87.149h-392.17z" />
<glyph unicode="&#xe90a;" glyph-name="eye" d="M512 747.52c-335.923 0-512-247.398-512-286.72 0-39.219 176.077-286.72 512-286.72 335.872 0 512 247.501 512 286.72 0 39.322-176.128 286.72-512 286.72zM512 240.282c-125.696 0-227.584 98.714-227.584 220.518s101.888 220.621 227.584 220.621c125.696 0 227.533-98.816 227.533-220.621s-101.837-220.518-227.533-220.518zM512 460.8c-20.838 22.886 33.946 110.285 0 110.285-62.874 0-113.818-49.408-113.818-110.285s50.944-110.285 113.818-110.285c62.822 0 113.818 49.408 113.818 110.285 0 28.006-96.102-19.405-113.818 0z" />
<glyph unicode="&#xe90b;" glyph-name="plus" d="M841.142 960h-658.285c-100.939-0.12-182.736-81.917-182.856-182.856v-658.285c0.12-100.939 81.917-182.736 182.856-182.856h658.285c100.939 0.12 182.736 81.917 182.856 182.856v658.285c-0.12 100.939-81.917 182.736-182.856 182.856zM694.857 411.429h-146.286v-146.286c0-20.199-16.374-36.572-36.572-36.572s-36.572 16.374-36.572 36.572v146.286h-146.284c-20.199 0-36.572 16.374-36.572 36.572s16.374 36.572 36.572 36.572h146.286v146.284c0 20.199 16.374 36.572 36.572 36.572s36.57-16.374 36.57-36.572v-146.286h146.286c20.199 0 36.572-16.374 36.572-36.572s-16.376-36.57-36.572-36.57z" />
<glyph unicode="&#xe90c;" glyph-name="minus" d="M906.667 960h-789.333c-64.725 0-117.333-52.608-117.333-117.333v-789.333c0-64.725 52.608-117.333 117.333-117.333h789.333c64.725 0 117.333 52.608 117.333 117.333v789.333c0 64.725-52.608 117.333-117.333 117.333zM736 405.333h-448c-23.595 0-42.667 19.115-42.667 42.667s19.072 42.667 42.667 42.667h448c23.595 0 42.667-19.115 42.667-42.667s-19.072-42.667-42.667-42.667z" />
<glyph unicode="&#xe90d;" d="M586.082 662.019h-31.279v83.961c0 116.887-95.485 214.019-214.019 214.019s-214.019-95.486-214.019-214.019v-85.608h-31.279c-52.682 1.646-95.486-41.157-95.486-95.486v-362.186c0-52.68 42.804-95.483 95.486-95.483h418.162c4.938 24.692 16.463 46.094 32.926 62.557-27.988 37.865-34.574 90.545-9.882 136.643 32.926 60.914 83.963 108.656 144.877 134.996v123.473c0 54.328-42.803 97.132-95.488 97.132zM214.019 745.981c0 70.791 57.62 128.411 128.411 128.411s128.414-57.62 128.414-128.411v-85.608h-256.825v85.608z" />
<glyph unicode="&#xe90e;" d="M991.074 112.156c-21.402 11.525-46.099 3.291-57.623-16.463-24.692-44.451-70.791-72.439-121.823-72.439-26.34 0-51.037 8.234-72.439 21.402l19.754 19.759c9.882 9.877 11.525 23.045 6.586 34.569s-16.463 19.759-29.631 19.759h-107.013c-18.106 0-31.279-14.82-31.279-31.283v-107.008c0-13.172 8.229-24.697 19.754-29.635 3.295-1.643 8.234-1.643 11.525-1.643 8.234 0 16.463 3.291 23.049 9.877l24.692 24.692c37.869-27.988 85.611-44.451 135-44.451 82.316 0 158.045 44.451 197.553 118.537 9.882 18.106 1.648 42.803-18.106 54.328z" />
<glyph unicode="&#xe90f;" d="M1004.241 370.623c-11.525 4.938-26.34 1.648-34.569-6.586l-24.697-24.692c-39.508 29.631-85.606 44.451-134.996 44.451-82.316 0-158.045-46.099-197.558-118.533-11.525-21.406-3.291-46.099 18.111-57.623 6.586-3.291 13.172-4.938 19.754-4.938 14.82 0 29.635 8.229 37.865 23.049 24.697 46.094 70.791 74.082 121.828 74.082 26.34 0 51.037-8.229 72.439-21.402l-19.759-19.754c-9.877-9.877-11.525-23.049-6.582-34.574 4.938-11.525 16.463-19.754 29.631-19.754h107.008c18.111 0 31.283 14.815 31.283 31.279v107.008c0 11.525-8.234 23.049-19.759 27.988z" />
<glyph unicode="&#xe910;" d="M364.826 796.243l-310.932 163.757c-26.947-10.364-53.895-43.53-53.895-82.915v-698.56c0-31.092 14.51-58.038 39.385-74.622l240.454-151.319c58.040-39.387 138.882 2.071 138.882 74.622v686.122c2.073 35.239-18.656 66.332-53.895 82.915zM300.567 387.887c0-16.584-12.437-29.021-29.020-29.021s-29.020 12.437-29.020 29.021v120.227c0 16.583 12.437 29.020 29.020 29.020s29.020-12.437 29.020-29.020v-120.227z" />
<glyph unicode="&#xe911;" d="M1011.563 470.803l-211.433 147.172c-18.655 18.656-51.824 6.219-51.824-20.729v-89.134h-238.378c-16.584 0-29.021-12.437-29.021-29.020v-60.113c0-16.584 12.437-29.021 29.021-29.021h240.454v-89.135c0-26.945 33.164-39.382 51.819-20.727l211.433 147.172c14.513 8.294 14.513 33.168-2.071 43.534z" />
<glyph unicode="&#xe912;" d="M480.908 327.773v-271.546h89.135c49.748 0 89.135 39.382 89.135 89.135v182.412c-103.647 0-74.626 0-178.269 0z" />
<glyph unicode="&#xe913;" d="M570.038 960h-387.625l209.36-109.862h2.073c53.895-26.947 87.062-78.769 87.062-136.81v-145.101c105.714 0 74.622 0 180.34 0v302.639c-2.076 49.749-41.458 89.134-91.21 89.134z" />
<glyph unicode="&#xe914;" glyph-name="calendar" horiz-adv-x="910" d="M839.244 54.735c0-26.969-21.963-48.898-48.959-48.898h-671.391c-26.997 0-48.957 21.929-48.957 48.898v614.779h769.307v-614.779zM200.046 877.65c0 19.244 14.696 34.922 32.733 34.922 18.045 0 32.733-15.678 32.733-34.922v-136.819c0-19.262-14.688-34.931-32.733-34.931-18.036 0-32.733 15.669-32.733 34.931v136.819zM426.109 877.65c0 19.244 14.696 34.922 32.73 34.922 18.045 0 32.734-15.678 32.734-34.922v-136.819c0-19.262-14.689-34.931-32.734-34.931-18.034 0-32.73 15.669-32.73 34.931v136.819zM652.151 877.65c0 19.244 14.677 34.922 32.726 34.922 18.072 0 32.73-15.678 32.73-34.922v-136.819c0-19.262-14.658-34.931-32.73-34.931-18.049 0-32.726 15.669-32.726 34.931v136.819zM790.285 844.167h-30.716v33.483c0 42.381-33.485 76.844-74.691 76.844-41.237 0-74.691-34.463-74.691-76.844v-33.456h-76.656v33.456c0 42.381-33.481 76.844-74.691 76.844-41.199 0-74.691-34.463-74.691-76.844v-33.456h-76.643v33.456c0 42.381-33.493 76.844-74.7 76.844s-74.691-34.463-74.691-76.844v-33.456h-39.219c-65.545 0-118.894-53.283-118.894-118.757v-670.675c0-65.468 53.35-118.757 118.894-118.757h671.391c65.57 0 118.894 53.29 118.894 118.757v670.675c0 65.448-53.35 118.731-118.894 118.731zM151.704 429.037h113.778v113.778h-113.778v-113.778zM303.407 429.037h113.778v113.778h-113.778v-113.778zM493.037 429.037h113.778v113.778h-113.778v-113.778zM644.741 429.037h113.778v113.778h-113.778v-113.778zM151.704 277.333h113.778v113.778h-113.778v-113.778zM303.407 277.333h113.778v113.778h-113.778v-113.778zM493.037 277.333h113.778v113.778h-113.778v-113.778zM644.741 277.333h113.778v113.778h-113.778v-113.778zM151.704 125.63h113.778v113.778h-113.778v-113.778zM303.407 125.63h113.778v113.778h-113.778v-113.778zM493.037 125.63h113.778v113.778h-113.778v-113.778zM644.741 125.63h113.778v113.778h-113.778v-113.778z" />
<glyph unicode="&#xe915;" glyph-name="pdf" horiz-adv-x="819" d="M202.823 300.798c0 17.601-11.007 27.202-31.447 27.202-7.862 0-14.151-1.597-17.296-1.597v-54.403c3.144-1.597 7.862-1.597 14.151-1.597 20.441 0 34.592 11.198 34.592 30.396zM330.188 327.999c-9.434 0-15.724-1.597-18.868-1.597v-121.602c3.144-1.602 9.434-1.602 14.151-1.602 37.736 0 61.322 20.799 61.322 64 0 40.002-22.013 60.801-56.605 60.801zM564.478 960h-404.097c-58.178 0-106.921-49.6-106.921-108.8v-403.2h-11.006c-23.585 0-42.454-19.202-42.454-43.201v-265.601c0-23.998 18.868-43.201 42.454-43.201h11.006v-49.598c0-60.801 48.743-108.798 106.921-108.798h551.897c59.752 0 106.922 49.598 106.922 108.798v656.001l-254.722 257.6zM113.21 355.201c12.579 1.597 29.875 3.199 55.033 3.199s44.026-4.801 55.033-14.402c11.006-9.597 18.868-23.998 18.868-43.201 0-17.596-6.289-33.599-17.296-43.196-14.151-12.8-34.592-19.202-59.75-19.202-4.717 0-11.006 0-14.151 1.602v-65.602h-37.736v180.802zM712.278 3.199h-551.897c-23.586 0-40.881 19.202-40.881 41.599v49.603h514.16c23.589 0 42.455 19.198 42.455 43.201v267.198c0 23.998-18.866 43.201-42.455 43.201h-514.16v403.2c0 24 18.868 41.6 40.881 41.6h378.939v-142.4c0-41.6 33.018-75.2 73.9-75.2h136.794l1.573-630.402c1.573-23.998-15.72-41.599-39.309-41.599zM270.446 174.399v180.802c15.723 3.199 34.592 3.199 55.033 3.199 34.592 0 56.605-6.402 73.901-19.198 18.867-14.402 31.446-36.803 31.446-70.402 0-35.201-12.579-59.199-29.873-75.198-18.869-16.003-48.743-24.003-83.335-24.003-22.013 1.602-37.737 3.199-47.171 4.801zM564.478 281.6v-33.599h-64.467v-73.601h-40.882v184.001h111.636v-33.599h-69.181v-41.599h62.894v-1.602z" />
</font>
</defs>
</svg>
