<svg width="206" height="221" fill="none" xmlns="http://www.w3.org/2000/svg"><g clip-path="url(#clip0)"><path d="M104.178 115.21h3.442a2.862 2.862 0 002.899-2.899 2.861 2.861 0 00-2.899-2.898h-2.355v-5.434a2.862 2.862 0 00-2.899-2.899c-1.63 0-2.718 1.45-2.718 2.899v6.702c0 2.536 1.993 4.529 4.53 4.529zM89.32 99.088a2.862 2.862 0 00-2.898 2.898v5.797a2.861 2.861 0 002.899 2.898 2.861 2.861 0 002.899-2.898v-5.797a2.862 2.862 0 00-2.9-2.898zm31.344 11.412a2.861 2.861 0 002.899-2.898v-5.797a2.862 2.862 0 00-2.899-2.898 2.861 2.861 0 00-2.898 2.898v5.797a2.861 2.861 0 002.898 2.898zm-15.581 19.926c3.261 0 6.523-1.268 9.059-3.804 1.087-1.087 1.087-2.898 0-3.985-1.087-1.087-2.899-1.087-3.986 0-1.449 1.268-3.261 1.993-5.073 1.993-1.993 0-3.805-.725-5.073-2.174-1.087-1.087-2.899-1.087-3.986 0-1.087 1.087-1.087 2.898 0 3.985 2.356 2.717 5.617 3.985 9.059 3.985zM67.036 72.278V64.67h7.61a2.861 2.861 0 002.898-2.899 2.862 2.862 0 00-2.898-2.898h-10.51a2.862 2.862 0 00-2.899 2.898v10.507a2.861 2.861 0 002.9 2.898c1.63-.18 2.898-1.449 2.898-2.898zm78.813 2.717a2.861 2.861 0 002.898-2.898V61.59a2.861 2.861 0 00-2.898-2.898H135.34a2.862 2.862 0 00-2.899 2.898 2.862 2.862 0 002.899 2.898h7.791v7.609c0 1.63 1.268 2.898 2.718 2.898zm-81.712 54.344a2.862 2.862 0 00-2.899 2.899v10.506a2.862 2.862 0 002.9 2.899h10.507a2.862 2.862 0 002.9-2.899 2.861 2.861 0 00-2.9-2.898h-7.609v-7.608a2.862 2.862 0 00-2.899-2.899zm6.16-85.139a2.899 2.899 0 100-5.797 2.899 2.899 0 000 5.797zm8.877 0a2.899 2.899 0 100-5.797 2.899 2.899 0 000 5.797zm12.866-5.616a2.862 2.862 0 00-2.9 2.899 2.862 2.862 0 002.9 2.898h26.995a2.861 2.861 0 002.899-2.898 2.861 2.861 0 00-2.899-2.898H92.04zm13.043 166.294a14.613 14.613 0 0014.676-14.673 14.613 14.613 0 00-14.676-14.673 14.613 14.613 0 00-14.675 14.673c-.181 8.152 6.522 14.673 14.675 14.673zm0-23.73c5.073 0 9.059 4.166 9.059 9.057s-4.167 9.057-9.059 9.057c-5.073 0-9.059-4.166-9.059-9.057s3.986-9.057 9.059-9.057zm33.7 17.752c2.174 0 3.986-1.811 3.986-3.985v-9.782c0-2.174-1.812-3.985-3.986-3.985H129c-2.175 0-3.986 1.811-3.986 3.985v9.782c0 2.174 1.811 3.985 3.986 3.985h9.783zm-7.972-11.956h6.342v6.34h-6.342v-6.34zm-49.825-5.615h-9.783c-2.174 0-3.986 1.811-3.986 3.985v9.782c0 2.174 1.812 3.985 3.986 3.985h9.783c2.174 0 3.986-1.811 3.986-3.985v-9.782c0-2.174-1.811-3.985-3.986-3.985zm-1.63 11.955h-6.341v-6.34h6.34v6.34z" fill="#51215B"/><path d="M195.492 191.835l-13.951-13.948c.725-3.442.725-6.884.362-10.325-.181-1.631-1.63-2.718-3.08-2.355-1.63.181-2.718 1.63-2.355 3.079.362 3.08.181 6.159-.363 9.239-.362 1.449.182 2.898 1.088 3.804l14.494 14.31-18.118 18.115-14.675-14.673v-40.396c0-.543-.182-1.087-.363-1.449l-8.878-14.492c-2.717-4.71-3.623-8.514-2.355-11.593 1.087-2.717 3.805-4.529 5.798-5.253 0 0 14.132 24.817 14.313 24.998 0 0 3.805 3.804 5.073 6.159.906 1.268 2.536 1.63 3.805.906 1.268-.906 1.63-2.536.906-3.804a29.711 29.711 0 00-5.255-6.341l-13.044-22.824V92.929a2.862 2.862 0 00-2.899-2.899 2.861 2.861 0 00-2.899 2.899V120.1c-.544 0-1.087.181-1.631.362-2.717 1.087-7.609 3.623-9.602 8.695-1.269 3.261-1.269 6.884 0 10.869h-6.523a2.862 2.862 0 00-2.899 2.898 2.862 2.862 0 002.899 2.899h9.24l8.153 13.224h-6.341c-1.268-5.435-6.16-9.42-11.776-9.42h-17.212v-5.253c9.964-3.261 17.574-11.594 19.386-22.1h1.63c4.53 0 8.153-3.623 8.153-7.971v-6.34c0-4.529-3.623-7.97-8.153-7.97h-1.087V85.138c0-15.578-11.595-24.636-31.887-24.636S73.558 69.38 73.558 85.14v14.855h-1.087c-4.53 0-8.153 3.622-8.153 7.97v6.159c0 4.529 3.624 7.97 8.153 7.97h1.631c1.812 10.326 9.421 18.84 19.386 22.1v5.254H76.276c-5.798 0-10.508 3.985-11.776 9.419h-4.168c-.543-1.449-1.449-2.717-2.536-3.804V39.672a4.871 4.871 0 014.892-4.892h86.241a4.872 4.872 0 014.892 4.891v39.672a2.861 2.861 0 002.898 2.898 2.861 2.861 0 002.899-2.898V39.67c0-5.796-4.71-10.506-10.508-10.506H61.963c-5.798 0-10.508 4.71-10.508 10.506v77.894H30.982c-5.617 0-10.328 4.71-10.328 10.325v2.355c0 5.253 3.805 9.601 8.878 10.144-.725 1.45-1.268 3.08-1.268 4.71v2.355c0 3.804 1.993 7.065 5.073 8.876-1.269 1.631-1.993 3.804-1.993 6.159v2.355c0 3.623 1.993 6.884 4.71 8.695-1.268 1.812-2.174 3.986-2.174 6.341v2.354c0 5.616 4.711 10.326 10.328 10.326h6.884v18.115c0 5.796 4.71 10.506 10.509 10.506h17.393a2.861 2.861 0 002.899-2.898 2.862 2.862 0 00-2.9-2.899H61.602a4.87 4.87 0 01-4.892-4.891v-19.201c3.442-1.63 5.797-5.253 5.797-9.239v-2.355c0-3.623-1.992-6.883-4.71-8.695 1.268-1.811 2.174-3.985 2.174-6.34v-.362h92.763v46.011a4.87 4.87 0 01-4.891 4.891h-55.08a2.862 2.862 0 00-2.898 2.899A2.861 2.861 0 0092.763 221h55.26c5.798 0 10.508-4.71 10.508-10.507v-3.441l10.69 10.687c1.087 1.087 2.355 1.631 3.804 1.631 1.45 0 2.899-.544 3.805-1.631l18.299-18.296c1.087-1.086 1.631-2.354 1.631-3.804.362-1.449-.363-2.898-1.268-3.804zm-58.521-86.407h1.087c1.449 0 2.536 1.087 2.536 2.355v6.34c0 1.268-1.087 2.355-2.536 2.355h-1.087v-11.05zm-63.956 11.231h-1.087c-1.45 0-2.537-1.087-2.537-2.355v-6.34c0-1.268 1.087-2.355 2.537-2.355h1.087v11.05zM30.98 134.955c-2.536 0-4.71-2.174-4.71-4.71v-2.355c0-2.536 2.174-4.71 4.71-4.71h20.292v11.594H30.981v.181zm3.08 12.499v-2.355c0-2.536 2.175-4.71 4.711-4.71h12.502v11.775H38.771c-2.536 0-4.71-2.174-4.71-4.71zm3.08 17.39v-2.355c0-2.536 2.175-4.709 4.711-4.709h8.153c2.537 0 4.71 2.173 4.71 4.709v2.355c0 2.536-2.173 4.71-4.71 4.71h-8.153c-2.717-.181-4.71-2.174-4.71-4.71zm20.111 17.209c0 2.536-2.174 4.71-4.71 4.71h-8.153c-2.537 0-4.711-2.174-4.711-4.71v-2.355c0-2.536 2.174-4.709 4.71-4.709h8.154c2.536 0 4.71 2.173 4.71 4.709v2.355zM85.88 70.466c4.529-2.898 11.051-4.528 19.023-4.528 7.972 0 14.676 1.63 19.024 4.528 4.892 3.261 7.247 7.79 7.247 14.311-5.254-5.797-14.313-8.876-26.271-8.876-11.957 0-21.016 3.08-26.27 8.876.18-6.34 2.536-11.05 7.247-14.31zm-7.248 46.918v-16.847c0-6.521 2.356-11.231 7.248-14.492 4.529-2.898 11.051-4.529 19.204-4.529 8.154 0 14.676 1.63 19.024 4.53 4.892 3.26 7.247 7.97 7.247 14.491v16.847c0 12.499-10.327 22.643-23.009 22.643h-6.704c-12.682 0-23.01-10.144-23.01-22.643zm-8.877 41.482c1.087-2.173 3.26-3.804 5.979-3.804h17.574c.362 1.268.906 2.536 1.63 3.804H69.755zm41.852-6.521a6.495 6.495 0 01-6.523 6.521 6.494 6.494 0 01-6.522-6.521v-6.883c1.087.181 2.174.181 3.08.181h6.704c1.087 0 2.174 0 3.08-.181l.181 6.883zm3.623 6.521c.725-1.086 1.269-2.354 1.631-3.804h17.574c2.537 0 4.892 1.45 5.979 3.804H115.23z" fill="#51215B"/><path d="M152.915 51.084c14.109 0 25.546-11.436 25.546-25.542C178.461 11.435 167.024 0 152.915 0c-14.108 0-25.546 11.435-25.546 25.542 0 14.106 11.438 25.542 25.546 25.542z" fill="#fff"/><path d="M152.914 41.845c8.905 0 16.125-7.218 16.125-16.122s-7.22-16.122-16.125-16.122c-8.906 0-16.125 7.218-16.125 16.122s7.219 16.122 16.125 16.122z" fill="#F8B23F"/><path d="M185.346 76.082c11.407 0 20.654-9.246 20.654-20.65 0-11.406-9.247-20.652-20.654-20.652s-20.655 9.246-20.655 20.651 9.248 20.65 20.655 20.65z" fill="#E73C4A"/><path d="M23.01 111.043c12.708 0 23.01-10.3 23.01-23.005 0-12.706-10.302-23.006-23.01-23.006C10.302 65.032 0 75.332 0 88.038c0 12.705 10.302 23.005 23.01 23.005z" fill="#297DA2"/></g><defs><clipPath id="clip0"><path fill="#fff" d="M0 0h206v221H0z"/></clipPath></defs></svg>